# xmcd CD database file
#
# Track frame offsets:
#	187
#	27045
#	47840
#
# Disc length: 993 seconds
#
# Revision: 0
# Processed by: cddbd v1.5.1PL0 Copyright (c) Steve Scherf et al.
# Submitted via: CDex 1.51
#
DISCID=1b03df03
DTITLE=嘉門達夫 - ＴＫ替え唄メドレー
DYEAR=1996
DGENRE=JPop
TTITLE0=ＴＫ替え唄メドレー
TTITLE1=YAKINIKU POWER
TTITLE2=ＴＫ替え唄メドレー（カラオケ）
EXTD=YEAR: 1996
EXTT0=
EXTT1=
EXTT2=
PLAYORDER=
